<!-- Generated by IcoMoon.io -->
<svg version="1.1" xmlns="http://www.w3.org/2000/svg" width="1024" height="1024" viewBox="0 0 1024 1024">
<g id="icomoon-ignore">
</g>
<path d="M1005.572 316.116h-666.575l-48.28-243.347c-1.038-6.293-6.748-11.014-13.498-11.014h-258.53c-7.268 0-13.498 6.293-13.498 13.636s6.229 13.636 13.498 13.636h247.628l119.923 599.451v259.605c0 7.345 6.229 13.638 13.498 13.638h360.281c7.269 0 13.498-6.293 13.498-13.638 0-7.341-6.229-13.634-13.498-13.634h-346.784v-233.906h371.18c4.674 0 8.827-2.625 11.422-6.293l220.632-357.155c2.599-4.196 2.599-9.439 0-14.16-2.595-4.72-6.748-7.343-11.938-7.343l1.039 0.524zM766.768 429.399h-183.775v-86.011h183.775v86.011zM766.768 566.805h-183.775v-110.135h183.775v110.135zM555.998 343.388v86.011h-194.16l-17.132-86.011h211.291zM555.998 456.671v110.135h-159.378c0 0-4.67 1.051-6.748 2.098l-22.321-112.232h188.448zM410.638 673.271l-16.092-79.194c0 0 1.039 0 2.076 0h159.378v76.569c0 0 0 1.575 0.516 2.625h-145.878zM583.512 670.645v-76.569h183.775v79.194h-184.295c0 0 0.519-1.575 0.519-2.625zM794.282 645.471v-50.871h31.665l-31.665 50.871zM842.56 566.805h-48.277v-110.135h116.284l-68.007 110.135zM927.697 429.923c0 0-1.035 0-2.076 0h-131.34v-86.011h186.37l-53.47 86.535 0.516-0.524z"></path>
<path d="M760.019 966.964h-360.281c-10.383 0-18.691-8.391-18.691-18.881v-259.605l-118.882-594.207h-243.476c-10.383 0-18.689-8.391-18.689-18.881s8.306-18.881 18.689-18.881h258.53c8.825 0 16.612 6.293 18.171 15.21l47.762 239.151h661.901c6.748 0 12.978 3.671 16.611 9.965 3.115 5.769 3.115 13.112 0 19.405l-220.632 357.153c-3.634 5.77-9.347 8.915-16.096 8.915h-365.991v223.417h341.594c10.38 0 18.687 8.391 18.687 18.881s-8.308 18.881-18.687 18.881l-0.519-0.523zM18.689 67.001c-4.673 0-8.306 3.671-8.306 8.391s3.634 8.391 8.306 8.391h247.628c0 0 4.673 1.574 5.191 4.196l119.921 599.45v260.655c0 4.719 4.154 8.391 8.823 8.391h360.285c4.67 0 8.304-3.672 8.304-8.391s-3.634-8.391-8.304-8.391h-346.788c-2.595 0-5.189-2.098-5.189-5.243v-233.906c0-2.625 2.076-5.247 5.189-5.247h371.184c3.115 0 5.713-1.575 7.269-4.196l220.632-357.153c1.559-2.622 1.559-5.769 0-8.915-1.555-2.622-4.151-4.196-7.265-4.196h-666.575c0 0-4.673-1.574-5.191-4.196l-48.28-242.822c-1.038-4.196-4.153-6.818-8.307-6.818h-258.53zM766.768 678.513h-184.295c0 0-3.115-0.523-4.154-2.098s-1.555-2.621-1.039-4.196l5.193-1.046h-4.674v-77.096c0-2.621 2.079-5.243 5.193-5.243h183.775c2.595 0 5.189 2.098 5.189 5.243v79.194c0 2.621-2.076 5.243-5.189 5.243zM588.183 668.024h173.392v-68.701h-173.392v68.701zM556.514 678.513h-145.878c0 0-4.67-1.575-5.189-4.196l-16.092-79.19c0 0 0-3.149 1.035-4.724 1.039-1.046 2.599-2.098 4.674-1.571 0 0 1.039 0 1.555 0h158.859c2.595 0 5.189 2.098 5.189 5.243v78.144c0 1.575 0 3.149-1.035 4.196-1.039 1.051-2.599 2.098-4.154 2.098h1.035zM414.791 668.024h136.014v-68.701h-150.031l14.017 68.701zM794.282 650.195c0 0-1.039 0-1.559 0-2.076-0.527-3.634-2.625-3.634-4.724v-50.871c0-2.621 2.079-5.243 5.193-5.243h31.665c0 0 3.634 1.046 4.674 2.621s1.039 3.672 0 5.247l-31.668 50.871c0 0-2.595 2.621-4.154 2.621l-0.516-0.523zM799.473 599.323v27.795l17.132-27.795h-17.132zM389.871 574.149c0 0-1.555 0-2.076 0-1.555-0.527-2.595-2.098-3.115-3.672l-22.323-112.232c0 0 0-3.149 1.038-4.196 1.038-1.051 2.595-2.098 4.153-2.098h188.448c2.595 0 5.189 2.098 5.189 5.243v110.135c0 2.625-2.076 5.247-5.189 5.247h-159.378c0 0-2.595 0-4.151 1.575-1.039 0-1.559 0.523-2.599 0.523v-0.523zM373.78 461.914l20.245 100.173c0 0 2.079 0 3.115 0h154.185v-99.646h-177.544v-0.527zM794.282 572.051c-2.599 0-5.193-2.098-5.193-5.247v-110.135c0-2.621 2.079-5.247 5.193-5.247h116.284c0 0 3.634 1.051 4.674 2.625 1.039 1.571 1.039 3.668 0 5.243l-68.007 110.135c0 0-2.595 2.625-4.154 2.625h-48.797zM799.473 561.562h40.493l61.778-99.649h-102.271v99.649zM766.768 572.051h-183.775c-2.599 0-5.193-2.098-5.193-5.247v-110.135c0-2.621 2.079-5.247 5.193-5.247h183.775c2.595 0 5.189 2.098 5.189 5.247v110.135c0 2.621-2.076 5.247-5.189 5.247zM588.183 561.562h173.392v-99.649h-173.392v99.649zM927.697 434.643c0 0 0 0-0.516 0 0 0-1.039 0-1.559 0h-130.825c-2.595 0-5.189-2.098-5.189-5.245v-86.011c0-2.622 2.076-5.245 5.189-5.245h186.373c0 0 3.634 1.049 4.67 2.623 1.039 1.574 1.039 3.671 0 5.245l-53.47 86.011c0 0-2.595 2.622-4.154 2.622h-0.519zM799.473 424.154h125.631l46.721-75.521h-172.353v75.521zM766.768 434.643h-183.775c-2.599 0-5.193-2.098-5.193-5.245v-86.011c0-2.622 2.079-5.245 5.193-5.245h183.775c2.595 0 5.189 2.098 5.189 5.245v86.011c0 2.623-2.076 5.245-5.189 5.245zM588.183 424.154h173.392v-75.521h-173.392v75.521zM555.998 434.643h-194.16c0 0-4.673-1.574-5.191-4.196l-17.132-86.011c0 0 0-3.147 1.038-4.196s2.596-2.098 4.153-2.098h211.291c2.595 0 5.189 2.098 5.189 5.245v86.011c0 2.623-2.076 5.245-5.189 5.245zM365.993 424.154h184.812v-75.521h-199.867l15.055 75.521z"></path>
</svg>
