<!-- Generated by IcoMoon.io -->
<svg version="1.1" xmlns="http://www.w3.org/2000/svg" width="1024" height="1024" viewBox="0 0 1024 1024">
<g id="icomoon-ignore">
</g>
<path fill="#000" d="M782.972 183c-33.105 0-59.885 26.781-59.885 59.885s26.781 59.885 59.885 59.885c33.105 0 59.885-26.781 59.885-59.885s-26.781-59.885-59.885-59.885z"></path>
<path fill="#000" d="M516.277 260.007c-139.112 0-252.187 113.074-252.187 252.186s113.075 252.187 252.187 252.187c139.112 0 252.187-113.075 252.187-252.187s-113.075-252.186-252.187-252.186zM516.277 673.623c-88.898 0-161.43-72.531-161.43-161.43s72.531-161.429 161.43-161.429c88.898 0 161.43 72.53 161.43 161.429s-72.531 161.43-161.43 161.43z"></path>
<path fill="#000" d="M716.391 1024h-408.781c-169.613 0-307.609-137.996-307.609-307.609v-408.781c0-169.613 137.996-307.609 307.609-307.609h408.781c169.613 0 307.609 137.996 307.609 307.609v408.781c0 169.613-137.996 307.609-307.609 307.609zM307.609 96.709c-116.423 0-211.272 94.849-211.272 211.272v408.781c0 116.423 94.849 211.272 211.272 211.272h408.781c116.423 0 211.272-94.849 211.272-211.272v-408.781c0-116.423-94.849-211.272-211.272-211.272h-408.781z"></path>
</svg>
