<!-- Generated by IcoMoon.io -->
<svg version="1.1" xmlns="http://www.w3.org/2000/svg" width="1024" height="1024" viewBox="0 0 1024 1024">
<g id="icomoon-ignore">
</g>
<path d="M511.715 1000.321c-139.869 0-156.358-0.704-210.941-2.978-42.565-1.332-84.578-9.574-124.233-24.368-68.609-25.429-122.861-77.114-149.534-142.468-14.936-37.905-22.992-77.948-23.823-118.426-3.184-51.875-3.184-68.878-3.184-201.058 0-133.587 0.739-149.183 3.184-200.895 0.849-40.421 8.905-80.412 23.823-118.263 26.646-65.438 80.985-117.171 149.705-142.522 39.723-14.284 81.724-21.977 124.176-22.743 54.299-2.924 72.152-2.924 210.827-2.924 141.006 0 157.214 0.704 210.941 2.924 42.562 0.773 84.674 8.464 124.518 22.743 68.7 25.381 123.029 77.103 149.708 142.522 15.184 38.403 23.285 79.018 23.934 120.051 3.184 51.875 3.184 68.824 3.184 200.95s-0.796 149.453-3.184 200.734c-0.845 40.515-8.918 80.597-23.881 118.534-26.739 65.397-81.073 117.105-149.763 142.522-39.783 14.198-81.809 21.871-124.291 22.689-54.296 2.978-72.095 2.978-211.168 2.978zM509.783 109.393c-139.073 0-153.515 0.65-207.814 2.978-32.41 0.409-64.506 6.105-94.895 16.84-44.874 16.354-80.384 50.034-97.737 92.705-11.36 29.257-17.341 60.159-17.682 91.35-3.013 52.471-3.013 66.225-3.013 197.756 0 129.959 0.511 145.717 3.013 197.863 0.509 30.876 6.488 61.449 17.682 90.43 17.38 42.643 52.883 76.297 97.737 92.65 30.368 10.808 62.478 16.505 94.895 16.84 55.038 3.032 69.537 3.032 207.814 3.032 139.473 0 153.915-0.65 207.756-3.032 32.431-0.374 64.552-6.071 94.951-16.84 44.603-16.494 79.882-50.072 97.226-92.542 11.339-29.284 17.318-60.199 17.685-91.405h0.623c2.448-51.767 2.448-65.576 2.448-197.863s-0.628-146.205-3.070-197.917c-0.514-30.841-6.493-61.378-17.685-90.322-17.307-42.531-52.591-76.173-97.226-92.705-30.394-10.79-62.516-16.488-94.951-16.84-54.978-2.978-69.366-2.978-207.756-2.978zM511.715 761.141c-106.324 0.065-202.218-60.881-242.959-154.408-40.742-93.534-18.306-201.23 56.845-272.863s188.211-93.094 286.454-54.373c98.244 38.72 162.32 129.995 162.341 231.256-0.157 138.142-117.635 250.118-262.68 250.389zM511.715 348.194c-94.204 0-170.572 72.732-170.572 162.449 0 89.721 76.368 162.449 170.572 162.449s170.572-72.729 170.572-162.449c-0.217-89.632-76.459-162.241-170.572-162.449zM784.631 309.585c-33.805-0.12-61.124-26.285-61.065-58.482 0.065-32.197 27.486-58.265 61.292-58.265s61.227 26.068 61.292 58.264c0.016 15.533-6.465 30.433-18.010 41.407-11.539 10.974-27.199 17.118-43.509 17.074z"></path>
</svg>
