<!-- Generated by IcoMoon.io -->
<svg version="1.1" xmlns="http://www.w3.org/2000/svg" width="1024" height="1024" viewBox="0 0 1024 1024">
<g id="icomoon-ignore">
</g>
<path d="M568.888 999.619h-227.555v-650.158h227.555v108.36c48.508-58.771 122.062-93.808 200.53-95.519 141.122 0.746 254.992 110.114 254.581 244.514v392.803h-227.555v-365.714c-9.102-60.541-63.618-105.457-127.832-105.326-28.087 0.846-54.597 12.558-73.413 32.433-18.822 19.877-28.32 46.198-26.309 72.892v365.714zM227.555 999.619h-227.555v-650.158h227.555v650.158zM113.778 241.101c-62.838 0-113.778-48.514-113.778-108.36s50.94-108.36 113.778-108.36c62.838 0 113.778 48.514 113.778 108.36 0 28.739-11.988 56.301-33.325 76.622s-50.277 31.738-80.452 31.738z"></path>
</svg>
