<!-- Generated by IcoMoon.io -->
<svg version="1.1" xmlns="http://www.w3.org/2000/svg" width="1024" height="1024" viewBox="0 0 1024 1024">
<g id="icomoon-ignore">
</g>
<path fill="#000" d="M511.843 1018.661c-5.29 0-10.051-3.209-12.696-8.025l-260.793-564.505c-42.848-94.709-36.501-204.935 17.457-294.292 52.371-87.217 139.654-140.725 239.633-145.54 11.109-0.535 22.217-0.535 33.326 0 99.98 5.351 187.263 58.323 239.631 146.076 53.959 89.358 60.305 199.583 17.457 294.292l-261.321 564.502c-2.116 4.816-7.406 8.030-12.696 8.030v-0.538zM511.843 33.587c-5.29 0-10.051 0-15.341 0-90.458 4.816-169.807 52.972-217.416 132.163-48.668 81.331-55.015 181.391-15.87 268.073l248.626 537.214 248.626-537.214c39.148-86.147 32.796-186.206-15.871-267.538-47.607-79.726-126.956-127.883-217.414-132.163-4.761 0-10.051 0-15.341 0v-0.535z"></path>
<path fill="#000" d="M511.841 1023.999c-7.406 0-14.282-4.278-17.456-11.234l-260.793-564.506c-43.377-96.313-37.030-208.145 17.457-299.107 53.428-88.823 142.299-142.865 243.866-148.751 11.109-0.535 22.747-0.535 33.856 0 101.566 5.351 190.44 59.394 243.866 148.216 54.487 90.963 61.365 202.794 17.985 299.108l-261.322 564.503c-3.174 6.955-10.051 11.24-17.457 11.24v0.532zM511.841 11.102c-5.29 0-11.109 0-16.399 0-97.864 4.816-183.56 57.254-235.402 143.401-52.899 88.287-59.247 196.372-16.927 289.476l261.322 564.503c2.645 5.886 12.696 5.886 15.87 0l261.322-564.503c41.789-93.103 35.442-201.188-17.457-288.941-51.841-86.682-138.066-138.585-235.93-143.936-5.29 0-11.109 0-16.399 0zM511.841 976.913c0 0-3.703-1.070-4.761-3.209l-248.098-537.217c-39.674-87.753-33.856-189.952 16.4-272.888 48.138-80.796 129.074-130.023 221.119-134.839 10.051 0 20.631 0 31.211 0 92.045 4.816 172.98 54.043 221.647 134.839 49.727 82.937 56.073 185.136 16.398 272.888l-248.625 537.749c0 0-2.645 3.214-4.761 3.214l-0.529-0.538zM511.841 38.926c-5.29 0-10.051 0-14.811 0-88.871 4.28-166.104 51.903-213.184 130.023-48.138 79.726-53.957 178.18-15.87 263.257l243.866 527.050 243.864-527.050c38.088-84.542 32.269-182.996-15.866-262.722-47.083-78.121-124.315-125.208-213.186-130.023-4.761 0-10.051 0-14.812 0v-0.535z"></path>
<path fill="#000" d="M511.847 479.825c-91.516 0-165.574-74.911-165.574-167.479s74.058-167.479 165.574-167.479c91.515 0 165.574 74.911 165.574 167.479s-74.059 167.479-165.574 167.479zM511.847 172.692c-76.175 0-138.067 62.604-138.067 139.654s61.893 139.654 138.067 139.654c76.175 0 138.067-62.604 138.067-139.654s-61.892-139.654-138.067-139.654z"></path>
<path fill="#000" d="M511.845 485.178c-94.16 0-170.864-77.586-170.864-172.829s76.704-172.829 170.864-172.829c94.161 0 170.865 77.587 170.865 172.829s-76.704 172.829-170.865 172.829zM511.845 150.221c-88.341 0-160.284 72.771-160.284 162.128s71.943 162.128 160.284 162.128c88.341 0 160.285-72.771 160.285-162.128s-71.943-162.128-160.285-162.128zM511.845 456.82c-78.82 0-142.827-64.745-142.827-144.471s64.008-144.471 142.827-144.471c78.82 0 142.828 64.744 142.828 144.471s-64.008 144.471-142.828 144.471zM511.845 178.046c-73 0-132.777 60.463-132.777 134.303s59.777 134.303 132.777 134.303c73.001 0 132.777-60.463 132.777-134.303s-59.247-134.303-132.777-134.303z"></path>
</svg>
