<!-- Generated by IcoMoon.io -->
<svg version="1.1" xmlns="http://www.w3.org/2000/svg" width="1024" height="1024" viewBox="0 0 1024 1024">
<g id="icomoon-ignore">
</g>
<path fill="#000" d="M1005.021 872.626h-986.050c-7.379 0-13.703-6.095-13.703-13.209v-694.851c0-7.111 6.324-13.206 13.703-13.206h986.050c7.378 0 13.702 6.095 13.702 13.206v694.851c0 7.114-6.324 13.209-13.702 13.209zM32.674 846.212h958.114v-668.44h-958.114v668.44z"></path>
<path fill="#000" d="M1005.021 877.712h-986.048c-10.541 0-18.973-8.129-18.973-18.286v-694.853c0-10.159 8.432-18.286 18.973-18.286h986.048c10.542 0 18.973 8.127 18.973 18.286v694.853c0 10.157-8.431 18.286-18.973 18.286zM18.974 156.446c-4.743 0-8.432 3.556-8.432 8.127v694.853c0 4.574 3.689 8.129 8.432 8.129h986.048c4.744 0 8.431-3.555 8.431-8.129v-694.853c0-4.571-3.686-8.127-8.431-8.127h-986.048zM991.32 850.791h-958.643c-2.635 0-5.27-2.029-5.27-5.076v-667.935c0-2.54 2.108-5.079 5.27-5.079h958.117c2.633 0 5.271 2.031 5.271 5.079v667.935c0 2.536-2.111 5.076-5.271 5.076h0.526zM37.946 841.141h948.102v-658.282h-948.102v658.282z"></path>
<path fill="#000" d="M511.734 616.629c-3.16 0-6.851-1.016-9.484-3.556l-492.762-438.854c-5.797-5.079-5.797-13.206-0.527-18.793s13.703-5.587 19.5-0.508l483.8 430.727 483.276-430.727c5.798-5.079 14.228-4.571 19.5 0.508 5.271 5.587 4.744 13.714-0.526 18.793l-492.761 438.854c-2.638 2.539-5.798 3.556-9.489 3.556h-0.526z"></path>
<path fill="#000" d="M511.739 621.714c-4.744 0-9.489-1.524-12.648-5.079l-492.763-438.347c-7.905-7.111-8.432-18.793-1.054-25.905 3.162-3.556 7.905-6.095 13.176-6.095 4.743 0 10.014 1.524 13.703 5.079l480.114 427.68 479.585-427.68c3.686-3.556 8.431-5.079 13.702-5.079s10.011 2.54 13.176 6.095c3.686 3.556 5.271 8.127 5.271 13.206s-2.111 9.651-6.324 12.698l-492.761 438.854c-3.691 3.048-7.909 5.079-12.648 5.079l-0.526-0.508zM18.977 156.446c-2.108 0-4.216 1.016-5.797 2.54s-2.108 3.556-2.108 6.095c0 2.031 1.054 4.064 2.635 5.587l492.762 438.854c3.16 3.048 8.431 3.048 11.596 0l492.761-438.854c3.686-3.048 3.686-8.635 0-11.683-1.585-1.524-3.691-2.54-5.798-2.54-2.111 0-4.744 0.508-6.324 2.031l-483.803 430.727c0 0-5.271 1.524-6.851 0l-483.274-430.727c0 0-3.689-2.031-5.797-2.031z"></path>
</svg>
