<svg width="22" height="22" viewBox="0 0 22 22" fill="none" xmlns="http://www.w3.org/2000/svg">
<mask id="path-1-inside-1_7035_195" fill="white">
<path d="M14.19 12.4286C14.1356 12.3762 14.063 12.347 13.9875 12.347C13.912 12.347 13.8394 12.3762 13.785 12.4286L12.186 14.0226L7.084 8.93861L8.748 7.28062C8.80054 7.2265 8.82992 7.15404 8.82992 7.07862C8.82992 7.00319 8.80054 6.93073 8.748 6.87662L5.091 3.23362C5.03659 3.18125 4.96402 3.15199 4.8885 3.15199C4.81298 3.15199 4.74041 3.18125 4.686 3.23362L0.186 7.72762C0.133463 7.78173 0.104077 7.85419 0.104077 7.92962C0.104077 8.00504 0.133463 8.0775 0.186 8.13162L10.938 18.8446C11.048 18.9536 11.234 18.9536 11.343 18.8446C11.3955 18.7905 11.4249 18.718 11.4249 18.6426C11.4249 18.5672 11.3955 18.4947 11.343 18.4406L0.8 7.93462L3.735 5.01162L6.986 8.25162L6.483 8.75362C6.43076 8.80769 6.40156 8.87993 6.40156 8.95512C6.40156 9.0303 6.43076 9.10254 6.483 9.15662L11.99 14.6446C12.1 14.7536 12.286 14.7536 12.395 14.6446L12.932 14.1096L16.249 17.4146L13.249 20.4046C13.1965 20.4586 13.1672 20.5309 13.1672 20.6061C13.1672 20.6814 13.1965 20.7537 13.249 20.8076C13.359 20.9176 13.545 20.9176 13.654 20.8076L17.946 16.5316C17.9985 16.4775 18.0279 16.405 18.0279 16.3296C18.0279 16.2542 17.9985 16.1817 17.946 16.1276L14.191 12.4296L14.19 12.4286ZM4.15 4.59762L4.894 3.85562L8.146 7.09562L7.401 7.83762L4.161 4.59762H4.15ZM16.653 17.0126L13.336 13.7066L13.993 13.0526L17.333 16.3466L16.653 17.0236V17.0126Z"/>
<path d="M13.445 21.0046C13.3414 21.0023 13.2429 20.9592 13.171 20.8846C13.0964 20.8131 13.0533 20.7149 13.051 20.6116C13.051 20.5136 13.095 20.4046 13.171 20.3276L16.106 17.4036L12.931 14.2406L12.471 14.6986C12.3965 14.7721 12.2961 14.8133 12.1915 14.8133C12.0869 14.8133 11.9865 14.7721 11.912 14.6986L6.405 9.21162C6.33041 9.14011 6.28726 9.04192 6.285 8.93861C6.285 8.84061 6.328 8.73162 6.405 8.65462L6.832 8.22962L3.734 5.14262L0.953 7.93462L11.431 18.3746C11.507 18.4516 11.551 18.5496 11.551 18.6586C11.551 18.7686 11.507 18.8656 11.431 18.9316C11.3566 19.0053 11.2562 19.0467 11.1515 19.0467C11.0468 19.0467 10.9464 19.0053 10.872 18.9316L0.12 8.20761C0.0454145 8.1361 0.00225576 8.03792 0 7.93462C0 7.83662 0.044 7.72762 0.12 7.65162L4.61 3.16762C4.6817 3.0933 4.77977 3.0502 4.883 3.04762C4.993 3.04762 5.091 3.09162 5.157 3.16762L8.814 6.81162C8.891 6.88762 8.934 6.98562 8.934 7.09462C8.934 7.20462 8.891 7.30262 8.814 7.36762L7.226 8.94962L12.176 13.8796L13.697 12.3646C13.7713 12.2909 13.8718 12.2496 13.9765 12.2496C14.0812 12.2496 14.1816 12.2909 14.256 12.3646L18.011 16.0626C18.0488 16.0995 18.0789 16.1436 18.0994 16.1923C18.1199 16.241 18.1305 16.2933 18.1305 16.3461C18.1305 16.399 18.1199 16.4513 18.0994 16.4999C18.0789 16.5486 18.0488 16.5927 18.011 16.6296L13.719 20.9056C13.6471 20.9802 13.5486 21.0233 13.445 21.0256V21.0046ZM12.92 13.9896C12.92 13.9896 12.975 13.9896 12.996 14.0226L16.314 17.3276C16.314 17.3276 16.347 17.3716 16.347 17.4036C16.347 17.4366 16.336 17.4586 16.314 17.4806L13.314 20.4696C13.314 20.4696 13.259 20.5456 13.259 20.5996C13.259 20.6546 13.281 20.6876 13.314 20.7316C13.3483 20.7632 13.3933 20.7808 13.44 20.7808C13.4867 20.7808 13.5317 20.7632 13.566 20.7316L17.858 16.4546C17.858 16.4546 17.912 16.3786 17.912 16.3246C17.9106 16.2758 17.8914 16.2292 17.858 16.1936L14.102 12.4946C14.0677 12.463 14.0227 12.4454 13.976 12.4454C13.9293 12.4454 13.8843 12.463 13.85 12.4946L12.252 14.0876C12.252 14.0876 12.142 14.1316 12.098 14.0876L6.996 9.00362C6.996 9.00362 6.953 8.89461 6.996 8.85161L8.661 7.19362C8.661 7.19362 8.715 7.11662 8.715 7.06262C8.715 7.00762 8.693 6.97462 8.661 6.93162L5.004 3.28762C5.004 3.28762 4.927 3.23362 4.872 3.23362C4.872 3.23362 4.785 3.25462 4.741 3.28762L0.263 7.80362C0.263 7.80362 0.208 7.88062 0.208 7.93462C0.208 7.98962 0.23 8.02262 0.263 8.06562L11.015 18.7786C11.0493 18.81 11.0941 18.8273 11.1405 18.8273C11.1869 18.8273 11.2317 18.81 11.266 18.7786C11.2835 18.7618 11.2973 18.7416 11.3068 18.7192C11.3162 18.6969 11.3211 18.6729 11.321 18.6486C11.3213 18.624 11.3166 18.5996 11.3072 18.5769C11.2977 18.5542 11.2837 18.5337 11.266 18.5166L0.723 8.01161C0.723 8.01161 0.679 7.90162 0.723 7.85862L3.657 4.93462C3.657 4.93462 3.767 4.89162 3.81 4.93462L7.062 8.17461C7.062 8.17461 7.095 8.21862 7.095 8.25162C7.09532 8.26592 7.09253 8.28011 7.08683 8.29323C7.08114 8.30635 7.07266 8.31808 7.062 8.32762L6.558 8.82962C6.558 8.82962 6.504 8.90562 6.504 8.95962C6.504 9.01462 6.526 9.04762 6.558 9.09162L12.066 14.5786C12.1003 14.6102 12.1453 14.6278 12.192 14.6278C12.2387 14.6278 12.2837 14.6102 12.318 14.5786L12.854 14.0446C12.854 14.0446 12.898 14.0116 12.931 14.0116L12.92 13.9896ZM16.653 17.1096C16.653 17.1096 16.599 17.0986 16.577 17.0766L13.259 13.7716C13.259 13.7716 13.215 13.6616 13.259 13.6186L13.916 12.9646C13.916 12.9646 14.026 12.9206 14.069 12.9646L17.409 16.2586C17.409 16.2586 17.442 16.3026 17.442 16.3346C17.442 16.3676 17.431 16.3896 17.409 16.4116L16.729 17.0876C16.729 17.0876 16.686 17.1206 16.653 17.1206V17.1096ZM13.478 13.6946L16.653 16.8586L17.179 16.3346L13.993 13.1936L13.489 13.6946H13.478ZM7.391 7.94562C7.391 7.94562 7.336 7.94562 7.314 7.91362L4.062 4.67362C4.062 4.67362 4.018 4.56362 4.062 4.52062L4.807 3.77862C4.807 3.77862 4.917 3.73462 4.96 3.77862L8.212 7.00862C8.212 7.00862 8.255 7.11662 8.212 7.16062L7.467 7.90262C7.467 7.90262 7.423 7.93462 7.391 7.93462V7.94562ZM4.292 4.59662L7.391 7.68362L7.981 7.09462L4.884 4.00862L4.293 4.59862L4.292 4.59662Z"/>
<path d="M17.277 9.10262C17.2877 9.17646 17.3271 9.24311 17.3866 9.28805C17.4462 9.333 17.5211 9.35261 17.595 9.34262C17.6334 9.33834 17.6705 9.32635 17.7041 9.30739C17.7378 9.28842 17.7673 9.26286 17.7908 9.23223C17.8143 9.20161 17.8314 9.16655 17.8411 9.12916C17.8507 9.09176 17.8528 9.0528 17.847 9.01462C17.6124 7.59422 16.9339 6.28462 15.909 5.27362C14.8774 4.23823 13.543 3.55807 12.099 3.33162C12.0609 3.32571 12.022 3.32754 11.9846 3.33701C11.9472 3.34647 11.9121 3.36338 11.8814 3.38671C11.8507 3.41005 11.825 3.43934 11.8058 3.47282C11.7867 3.50631 11.7745 3.54331 11.77 3.58162C11.76 3.65544 11.7797 3.73021 11.8246 3.78961C11.8696 3.849 11.9362 3.88819 12.01 3.89862C13.3318 4.10175 14.5531 4.7252 15.493 5.67662C16.43 6.60347 17.0504 7.80243 17.266 9.10262H17.277Z"/>
<path d="M17.562 9.45162C17.4681 9.45119 17.3775 9.41669 17.307 9.35453C17.2366 9.29237 17.1911 9.20677 17.179 9.11362C16.9626 7.83968 16.354 6.66505 15.438 5.75362C14.5096 4.82305 13.3095 4.21162 12.011 4.00762C11.9091 3.99269 11.8169 3.93903 11.7535 3.85782C11.6902 3.7766 11.6606 3.67408 11.671 3.57162C11.6762 3.51789 11.6926 3.46584 11.7191 3.41883C11.7456 3.37181 11.7817 3.33086 11.825 3.29862C11.9097 3.23595 12.0155 3.2087 12.12 3.22262C13.5837 3.4513 14.937 4.13863 15.985 5.18562C17.0212 6.21527 17.7102 7.54264 17.956 8.98262C17.978 9.09162 17.956 9.18962 17.88 9.27662C17.8475 9.31975 17.8063 9.35563 17.7591 9.38197C17.7119 9.40831 17.6598 9.42454 17.606 9.42962H17.562V9.45162ZM17.387 9.08062C17.397 9.17862 17.485 9.24361 17.584 9.23361C17.6088 9.23183 17.6328 9.22385 17.6538 9.2104C17.6748 9.19695 17.692 9.17846 17.704 9.15662C17.737 9.11362 17.748 9.06962 17.737 9.02662C17.5071 7.62705 16.8403 6.33611 15.832 5.33862C14.8145 4.31988 13.4995 3.65099 12.077 3.42862C12.033 3.42862 11.989 3.42862 11.945 3.46262C11.9064 3.49246 11.8795 3.53494 11.869 3.58262C11.8659 3.60557 11.8675 3.6289 11.8735 3.65125C11.8796 3.6736 11.8901 3.69452 11.9043 3.71277C11.9186 3.73103 11.9363 3.74626 11.9565 3.75756C11.9767 3.76887 11.999 3.77603 12.022 3.77862C13.3655 3.99306 14.607 4.62655 15.569 5.58862C16.5192 6.53202 17.1509 7.74868 17.376 9.06861L17.387 9.08062Z"/>
<path d="M12.372 5.90562C12.23 5.82962 12.055 5.89562 11.978 6.03662C11.9477 6.10341 11.9444 6.17932 11.9688 6.24848C11.9933 6.31763 12.0435 6.37465 12.109 6.40762C13.2232 6.998 14.1377 7.90514 14.737 9.01462C14.814 9.15662 14.978 9.21162 15.12 9.14562C15.1546 9.1288 15.1856 9.10525 15.211 9.07635C15.2365 9.04745 15.2559 9.01378 15.2682 8.97729C15.2805 8.9408 15.2854 8.90223 15.2826 8.86382C15.2798 8.82542 15.2694 8.78796 15.252 8.75362C14.9342 8.15136 14.5239 7.60269 14.036 7.12762C13.5409 6.63701 12.9766 6.22159 12.361 5.89462L12.372 5.90562Z"/>
<path d="M15.01 9.27662C14.9386 9.27603 14.8686 9.25658 14.8071 9.22022C14.7457 9.18387 14.6949 9.13191 14.66 9.06962C14.3703 8.53333 14.0056 8.04105 13.577 7.60762C13.1363 7.16579 12.6304 6.79414 12.077 6.50562C12.0097 6.46946 11.9543 6.41455 11.9175 6.34753C11.8808 6.28052 11.8642 6.20428 11.87 6.12806C11.8757 6.05185 11.9034 5.97893 11.9497 5.91814C11.996 5.85736 12.059 5.81132 12.131 5.78562C12.2325 5.75463 12.3419 5.76247 12.438 5.80762C13.6793 6.45725 14.6972 7.46432 15.36 8.69862C15.415 8.78562 15.415 8.89461 15.382 9.00461C15.3446 9.10752 15.2706 9.193 15.174 9.24462C15.1225 9.26899 15.0669 9.28357 15.01 9.28761V9.27662ZM12.252 5.97162H12.197C12.153 5.98162 12.109 6.02562 12.087 6.06962C12.044 6.15662 12.087 6.25462 12.175 6.30962C13.3101 6.91003 14.243 7.83179 14.857 8.95962C14.879 9.00157 14.9166 9.03318 14.9617 9.0476C15.0068 9.06201 15.0558 9.05807 15.098 9.03662C15.1416 9.01161 15.1763 8.97346 15.197 8.92762C15.2078 8.88496 15.2078 8.84027 15.197 8.79762C14.8805 8.2071 14.4785 7.66659 14.004 7.19362C13.5204 6.70951 12.9665 6.30123 12.361 5.98262C12.361 5.98262 12.306 5.96062 12.285 5.96062L12.252 5.97162Z"/>
<path d="M10.402 0.123615C10.237 0.123615 10.117 0.276615 10.128 0.440615C10.1351 0.515423 10.171 0.584545 10.2281 0.633418C10.2852 0.682292 10.359 0.7071 10.434 0.702615C11.7477 0.631296 13.0617 0.836149 14.2914 1.30396C15.521 1.77177 16.6389 2.49214 17.573 3.41862C18.5163 4.35575 19.2477 5.48422 19.718 6.72797C20.1882 7.97171 20.3863 9.30182 20.299 10.6286C20.299 10.7826 20.398 10.9236 20.551 10.9346C20.715 10.9456 20.858 10.8256 20.869 10.6736C20.9639 9.26448 20.755 7.85141 20.2564 6.53002C19.7578 5.20864 18.9811 4.00979 17.979 3.01462C16.9894 2.02842 15.8033 1.26146 14.4979 0.763556C13.1926 0.265658 11.797 0.0479628 10.402 0.124615V0.123615Z"/>
<path d="M20.584 11.0446H20.551C20.45 11.035 20.3568 10.9861 20.2913 10.9085C20.2259 10.8309 20.1935 10.7308 20.201 10.6296C20.2856 9.31711 20.089 8.00167 19.6244 6.77123C19.1598 5.54079 18.4379 4.4237 17.507 3.49462C16.584 2.57976 15.4802 1.86762 14.2663 1.40373C13.0523 0.939841 11.7549 0.734424 10.457 0.800615C10.354 0.808051 10.2522 0.774325 10.1741 0.706836C10.0959 0.639347 10.0477 0.543606 10.04 0.440615C10.04 0.330615 10.062 0.222615 10.139 0.145615C10.1726 0.105749 10.2144 0.0735256 10.2614 0.0511053C10.3085 0.0286849 10.3599 0.0165848 10.412 0.0156154C11.8233 -0.0631161 13.2353 0.156501 14.556 0.660147C15.8768 1.16379 17.0765 1.94016 18.077 2.93862C19.0878 3.94686 19.8715 5.15945 20.3756 6.49518C20.8797 7.83091 21.0926 9.25893 21 10.6836C21 10.7936 20.945 10.8806 20.858 10.9566C20.7853 11.0205 20.6917 11.0553 20.595 11.0546L20.584 11.0446ZM10.938 0.570615C13.445 0.570615 15.865 1.56262 17.65 3.34062C18.6031 4.29061 19.3423 5.43324 19.8181 6.69202C20.2939 7.95079 20.4954 9.29669 20.409 10.6396C20.409 10.7376 20.475 10.8246 20.573 10.8356C20.617 10.8356 20.672 10.8356 20.704 10.7926C20.7363 10.7592 20.7591 10.7178 20.77 10.6726C20.8617 9.27977 20.6541 7.88342 20.1612 6.57751C19.6682 5.27159 18.9013 4.08638 17.912 3.10162C16.9308 2.12422 15.7554 1.36372 14.4617 0.869331C13.168 0.374944 11.7849 0.157686 10.402 0.231615C10.3781 0.232305 10.3546 0.238643 10.3336 0.250112C10.3126 0.261582 10.2945 0.277859 10.281 0.297615C10.248 0.330615 10.237 0.384615 10.237 0.427615C10.237 0.527615 10.336 0.592615 10.423 0.592615C10.598 0.592615 10.763 0.581615 10.938 0.581615V0.570615Z"/>
</mask>
<path d="M14.19 12.4286C14.1356 12.3762 14.063 12.347 13.9875 12.347C13.912 12.347 13.8394 12.3762 13.785 12.4286L12.186 14.0226L7.084 8.93861L8.748 7.28062C8.80054 7.2265 8.82992 7.15404 8.82992 7.07862C8.82992 7.00319 8.80054 6.93073 8.748 6.87662L5.091 3.23362C5.03659 3.18125 4.96402 3.15199 4.8885 3.15199C4.81298 3.15199 4.74041 3.18125 4.686 3.23362L0.186 7.72762C0.133463 7.78173 0.104077 7.85419 0.104077 7.92962C0.104077 8.00504 0.133463 8.0775 0.186 8.13162L10.938 18.8446C11.048 18.9536 11.234 18.9536 11.343 18.8446C11.3955 18.7905 11.4249 18.718 11.4249 18.6426C11.4249 18.5672 11.3955 18.4947 11.343 18.4406L0.8 7.93462L3.735 5.01162L6.986 8.25162L6.483 8.75362C6.43076 8.80769 6.40156 8.87993 6.40156 8.95512C6.40156 9.0303 6.43076 9.10254 6.483 9.15662L11.99 14.6446C12.1 14.7536 12.286 14.7536 12.395 14.6446L12.932 14.1096L16.249 17.4146L13.249 20.4046C13.1965 20.4586 13.1672 20.5309 13.1672 20.6061C13.1672 20.6814 13.1965 20.7537 13.249 20.8076C13.359 20.9176 13.545 20.9176 13.654 20.8076L17.946 16.5316C17.9985 16.4775 18.0279 16.405 18.0279 16.3296C18.0279 16.2542 17.9985 16.1817 17.946 16.1276L14.191 12.4296L14.19 12.4286ZM4.15 4.59762L4.894 3.85562L8.146 7.09562L7.401 7.83762L4.161 4.59762H4.15ZM16.653 17.0126L13.336 13.7066L13.993 13.0526L17.333 16.3466L16.653 17.0236V17.0126Z" fill="#3C3E41"/>
<path d="M13.445 21.0046C13.3414 21.0023 13.2429 20.9592 13.171 20.8846C13.0964 20.8131 13.0533 20.7149 13.051 20.6116C13.051 20.5136 13.095 20.4046 13.171 20.3276L16.106 17.4036L12.931 14.2406L12.471 14.6986C12.3965 14.7721 12.2961 14.8133 12.1915 14.8133C12.0869 14.8133 11.9865 14.7721 11.912 14.6986L6.405 9.21162C6.33041 9.14011 6.28726 9.04192 6.285 8.93861C6.285 8.84061 6.328 8.73162 6.405 8.65462L6.832 8.22962L3.734 5.14262L0.953 7.93462L11.431 18.3746C11.507 18.4516 11.551 18.5496 11.551 18.6586C11.551 18.7686 11.507 18.8656 11.431 18.9316C11.3566 19.0053 11.2562 19.0467 11.1515 19.0467C11.0468 19.0467 10.9464 19.0053 10.872 18.9316L0.12 8.20761C0.0454145 8.1361 0.00225576 8.03792 0 7.93462C0 7.83662 0.044 7.72762 0.12 7.65162L4.61 3.16762C4.6817 3.0933 4.77977 3.0502 4.883 3.04762C4.993 3.04762 5.091 3.09162 5.157 3.16762L8.814 6.81162C8.891 6.88762 8.934 6.98562 8.934 7.09462C8.934 7.20462 8.891 7.30262 8.814 7.36762L7.226 8.94962L12.176 13.8796L13.697 12.3646C13.7713 12.2909 13.8718 12.2496 13.9765 12.2496C14.0812 12.2496 14.1816 12.2909 14.256 12.3646L18.011 16.0626C18.0488 16.0995 18.0789 16.1436 18.0994 16.1923C18.1199 16.241 18.1305 16.2933 18.1305 16.3461C18.1305 16.399 18.1199 16.4513 18.0994 16.4999C18.0789 16.5486 18.0488 16.5927 18.011 16.6296L13.719 20.9056C13.6471 20.9802 13.5486 21.0233 13.445 21.0256V21.0046ZM12.92 13.9896C12.92 13.9896 12.975 13.9896 12.996 14.0226L16.314 17.3276C16.314 17.3276 16.347 17.3716 16.347 17.4036C16.347 17.4366 16.336 17.4586 16.314 17.4806L13.314 20.4696C13.314 20.4696 13.259 20.5456 13.259 20.5996C13.259 20.6546 13.281 20.6876 13.314 20.7316C13.3483 20.7632 13.3933 20.7808 13.44 20.7808C13.4867 20.7808 13.5317 20.7632 13.566 20.7316L17.858 16.4546C17.858 16.4546 17.912 16.3786 17.912 16.3246C17.9106 16.2758 17.8914 16.2292 17.858 16.1936L14.102 12.4946C14.0677 12.463 14.0227 12.4454 13.976 12.4454C13.9293 12.4454 13.8843 12.463 13.85 12.4946L12.252 14.0876C12.252 14.0876 12.142 14.1316 12.098 14.0876L6.996 9.00362C6.996 9.00362 6.953 8.89461 6.996 8.85161L8.661 7.19362C8.661 7.19362 8.715 7.11662 8.715 7.06262C8.715 7.00762 8.693 6.97462 8.661 6.93162L5.004 3.28762C5.004 3.28762 4.927 3.23362 4.872 3.23362C4.872 3.23362 4.785 3.25462 4.741 3.28762L0.263 7.80362C0.263 7.80362 0.208 7.88062 0.208 7.93462C0.208 7.98962 0.23 8.02262 0.263 8.06562L11.015 18.7786C11.0493 18.81 11.0941 18.8273 11.1405 18.8273C11.1869 18.8273 11.2317 18.81 11.266 18.7786C11.2835 18.7618 11.2973 18.7416 11.3068 18.7192C11.3162 18.6969 11.3211 18.6729 11.321 18.6486C11.3213 18.624 11.3166 18.5996 11.3072 18.5769C11.2977 18.5542 11.2837 18.5337 11.266 18.5166L0.723 8.01161C0.723 8.01161 0.679 7.90162 0.723 7.85862L3.657 4.93462C3.657 4.93462 3.767 4.89162 3.81 4.93462L7.062 8.17461C7.062 8.17461 7.095 8.21862 7.095 8.25162C7.09532 8.26592 7.09253 8.28011 7.08683 8.29323C7.08114 8.30635 7.07266 8.31808 7.062 8.32762L6.558 8.82962C6.558 8.82962 6.504 8.90562 6.504 8.95962C6.504 9.01462 6.526 9.04762 6.558 9.09162L12.066 14.5786C12.1003 14.6102 12.1453 14.6278 12.192 14.6278C12.2387 14.6278 12.2837 14.6102 12.318 14.5786L12.854 14.0446C12.854 14.0446 12.898 14.0116 12.931 14.0116L12.92 13.9896ZM16.653 17.1096C16.653 17.1096 16.599 17.0986 16.577 17.0766L13.259 13.7716C13.259 13.7716 13.215 13.6616 13.259 13.6186L13.916 12.9646C13.916 12.9646 14.026 12.9206 14.069 12.9646L17.409 16.2586C17.409 16.2586 17.442 16.3026 17.442 16.3346C17.442 16.3676 17.431 16.3896 17.409 16.4116L16.729 17.0876C16.729 17.0876 16.686 17.1206 16.653 17.1206V17.1096ZM13.478 13.6946L16.653 16.8586L17.179 16.3346L13.993 13.1936L13.489 13.6946H13.478ZM7.391 7.94562C7.391 7.94562 7.336 7.94562 7.314 7.91362L4.062 4.67362C4.062 4.67362 4.018 4.56362 4.062 4.52062L4.807 3.77862C4.807 3.77862 4.917 3.73462 4.96 3.77862L8.212 7.00862C8.212 7.00862 8.255 7.11662 8.212 7.16062L7.467 7.90262C7.467 7.90262 7.423 7.93462 7.391 7.93462V7.94562ZM4.292 4.59662L7.391 7.68362L7.981 7.09462L4.884 4.00862L4.293 4.59862L4.292 4.59662Z" fill="#3C3E41"/>
<path d="M17.277 9.10262C17.2877 9.17646 17.3271 9.24311 17.3866 9.28805C17.4462 9.333 17.5211 9.35261 17.595 9.34262C17.6334 9.33834 17.6705 9.32635 17.7041 9.30739C17.7378 9.28842 17.7673 9.26286 17.7908 9.23223C17.8143 9.20161 17.8314 9.16655 17.8411 9.12916C17.8507 9.09176 17.8528 9.0528 17.847 9.01462C17.6124 7.59422 16.9339 6.28462 15.909 5.27362C14.8774 4.23823 13.543 3.55807 12.099 3.33162C12.0609 3.32571 12.022 3.32754 11.9846 3.33701C11.9472 3.34647 11.9121 3.36338 11.8814 3.38671C11.8507 3.41005 11.825 3.43934 11.8058 3.47282C11.7867 3.50631 11.7745 3.54331 11.77 3.58162C11.76 3.65544 11.7797 3.73021 11.8246 3.78961C11.8696 3.849 11.9362 3.88819 12.01 3.89862C13.3318 4.10175 14.5531 4.7252 15.493 5.67662C16.43 6.60347 17.0504 7.80243 17.266 9.10262H17.277Z" fill="#3C3E41"/>
<path d="M17.562 9.45162C17.4681 9.45119 17.3775 9.41669 17.307 9.35453C17.2366 9.29237 17.1911 9.20677 17.179 9.11362C16.9626 7.83968 16.354 6.66505 15.438 5.75362C14.5096 4.82305 13.3095 4.21162 12.011 4.00762C11.9091 3.99269 11.8169 3.93903 11.7535 3.85782C11.6902 3.7766 11.6606 3.67408 11.671 3.57162C11.6762 3.51789 11.6926 3.46584 11.7191 3.41883C11.7456 3.37181 11.7817 3.33086 11.825 3.29862C11.9097 3.23595 12.0155 3.2087 12.12 3.22262C13.5837 3.4513 14.937 4.13863 15.985 5.18562C17.0212 6.21527 17.7102 7.54264 17.956 8.98262C17.978 9.09162 17.956 9.18962 17.88 9.27662C17.8475 9.31975 17.8063 9.35563 17.7591 9.38197C17.7119 9.40831 17.6598 9.42454 17.606 9.42962H17.562V9.45162ZM17.387 9.08062C17.397 9.17862 17.485 9.24361 17.584 9.23361C17.6088 9.23183 17.6328 9.22385 17.6538 9.2104C17.6748 9.19695 17.692 9.17846 17.704 9.15662C17.737 9.11362 17.748 9.06962 17.737 9.02662C17.5071 7.62705 16.8403 6.33611 15.832 5.33862C14.8145 4.31988 13.4995 3.65099 12.077 3.42862C12.033 3.42862 11.989 3.42862 11.945 3.46262C11.9064 3.49246 11.8795 3.53494 11.869 3.58262C11.8659 3.60557 11.8675 3.6289 11.8735 3.65125C11.8796 3.6736 11.8901 3.69452 11.9043 3.71277C11.9186 3.73103 11.9363 3.74626 11.9565 3.75756C11.9767 3.76887 11.999 3.77603 12.022 3.77862C13.3655 3.99306 14.607 4.62655 15.569 5.58862C16.5192 6.53202 17.1509 7.74868 17.376 9.06861L17.387 9.08062Z" fill="#3C3E41"/>
<path d="M12.372 5.90562C12.23 5.82962 12.055 5.89562 11.978 6.03662C11.9477 6.10341 11.9444 6.17932 11.9688 6.24848C11.9933 6.31763 12.0435 6.37465 12.109 6.40762C13.2232 6.998 14.1377 7.90514 14.737 9.01462C14.814 9.15662 14.978 9.21162 15.12 9.14562C15.1546 9.1288 15.1856 9.10525 15.211 9.07635C15.2365 9.04745 15.2559 9.01378 15.2682 8.97729C15.2805 8.9408 15.2854 8.90223 15.2826 8.86382C15.2798 8.82542 15.2694 8.78796 15.252 8.75362C14.9342 8.15136 14.5239 7.60269 14.036 7.12762C13.5409 6.63701 12.9766 6.22159 12.361 5.89462L12.372 5.90562Z" fill="#3C3E41"/>
<path d="M15.01 9.27662C14.9386 9.27603 14.8686 9.25658 14.8071 9.22022C14.7457 9.18387 14.6949 9.13191 14.66 9.06962C14.3703 8.53333 14.0056 8.04105 13.577 7.60762C13.1363 7.16579 12.6304 6.79414 12.077 6.50562C12.0097 6.46946 11.9543 6.41455 11.9175 6.34753C11.8808 6.28052 11.8642 6.20428 11.87 6.12806C11.8757 6.05185 11.9034 5.97893 11.9497 5.91814C11.996 5.85736 12.059 5.81132 12.131 5.78562C12.2325 5.75463 12.3419 5.76247 12.438 5.80762C13.6793 6.45725 14.6972 7.46432 15.36 8.69862C15.415 8.78562 15.415 8.89461 15.382 9.00461C15.3446 9.10752 15.2706 9.193 15.174 9.24462C15.1225 9.26899 15.0669 9.28357 15.01 9.28761V9.27662ZM12.252 5.97162H12.197C12.153 5.98162 12.109 6.02562 12.087 6.06962C12.044 6.15662 12.087 6.25462 12.175 6.30962C13.3101 6.91003 14.243 7.83179 14.857 8.95962C14.879 9.00157 14.9166 9.03318 14.9617 9.0476C15.0068 9.06201 15.0558 9.05807 15.098 9.03662C15.1416 9.01161 15.1763 8.97346 15.197 8.92762C15.2078 8.88496 15.2078 8.84027 15.197 8.79762C14.8805 8.2071 14.4785 7.66659 14.004 7.19362C13.5204 6.70951 12.9665 6.30123 12.361 5.98262C12.361 5.98262 12.306 5.96062 12.285 5.96062L12.252 5.97162Z" fill="#3C3E41"/>
<path d="M10.402 0.123615C10.237 0.123615 10.117 0.276615 10.128 0.440615C10.1351 0.515423 10.171 0.584545 10.2281 0.633418C10.2852 0.682292 10.359 0.7071 10.434 0.702615C11.7477 0.631296 13.0617 0.836149 14.2914 1.30396C15.521 1.77177 16.6389 2.49214 17.573 3.41862C18.5163 4.35575 19.2477 5.48422 19.718 6.72797C20.1882 7.97171 20.3863 9.30182 20.299 10.6286C20.299 10.7826 20.398 10.9236 20.551 10.9346C20.715 10.9456 20.858 10.8256 20.869 10.6736C20.9639 9.26448 20.755 7.85141 20.2564 6.53002C19.7578 5.20864 18.9811 4.00979 17.979 3.01462C16.9894 2.02842 15.8033 1.26146 14.4979 0.763556C13.1926 0.265658 11.797 0.0479628 10.402 0.124615V0.123615Z" fill="#3C3E41"/>
<path d="M20.584 11.0446H20.551C20.45 11.035 20.3568 10.9861 20.2913 10.9085C20.2259 10.8309 20.1935 10.7308 20.201 10.6296C20.2856 9.31711 20.089 8.00167 19.6244 6.77123C19.1598 5.54079 18.4379 4.4237 17.507 3.49462C16.584 2.57976 15.4802 1.86762 14.2663 1.40373C13.0523 0.939841 11.7549 0.734424 10.457 0.800615C10.354 0.808051 10.2522 0.774325 10.1741 0.706836C10.0959 0.639347 10.0477 0.543606 10.04 0.440615C10.04 0.330615 10.062 0.222615 10.139 0.145615C10.1726 0.105749 10.2144 0.0735256 10.2614 0.0511053C10.3085 0.0286849 10.3599 0.0165848 10.412 0.0156154C11.8233 -0.0631161 13.2353 0.156501 14.556 0.660147C15.8768 1.16379 17.0765 1.94016 18.077 2.93862C19.0878 3.94686 19.8715 5.15945 20.3756 6.49518C20.8797 7.83091 21.0926 9.25893 21 10.6836C21 10.7936 20.945 10.8806 20.858 10.9566C20.7853 11.0205 20.6917 11.0553 20.595 11.0546L20.584 11.0446ZM10.938 0.570615C13.445 0.570615 15.865 1.56262 17.65 3.34062C18.6031 4.29061 19.3423 5.43324 19.8181 6.69202C20.2939 7.95079 20.4954 9.29669 20.409 10.6396C20.409 10.7376 20.475 10.8246 20.573 10.8356C20.617 10.8356 20.672 10.8356 20.704 10.7926C20.7363 10.7592 20.7591 10.7178 20.77 10.6726C20.8617 9.27977 20.6541 7.88342 20.1612 6.57751C19.6682 5.27159 18.9013 4.08638 17.912 3.10162C16.9308 2.12422 15.7554 1.36372 14.4617 0.869331C13.168 0.374944 11.7849 0.157686 10.402 0.231615C10.3781 0.232305 10.3546 0.238643 10.3336 0.250112C10.3126 0.261582 10.2945 0.277859 10.281 0.297615C10.248 0.330615 10.237 0.384615 10.237 0.427615C10.237 0.527615 10.336 0.592615 10.423 0.592615C10.598 0.592615 10.763 0.581615 10.938 0.581615V0.570615Z" fill="#3C3E41"/>
<path d="M14.19 12.4286C14.1356 12.3762 14.063 12.347 13.9875 12.347C13.912 12.347 13.8394 12.3762 13.785 12.4286L12.186 14.0226L7.084 8.93861L8.748 7.28062C8.80054 7.2265 8.82992 7.15404 8.82992 7.07862C8.82992 7.00319 8.80054 6.93073 8.748 6.87662L5.091 3.23362C5.03659 3.18125 4.96402 3.15199 4.8885 3.15199C4.81298 3.15199 4.74041 3.18125 4.686 3.23362L0.186 7.72762C0.133463 7.78173 0.104077 7.85419 0.104077 7.92962C0.104077 8.00504 0.133463 8.0775 0.186 8.13162L10.938 18.8446C11.048 18.9536 11.234 18.9536 11.343 18.8446C11.3955 18.7905 11.4249 18.718 11.4249 18.6426C11.4249 18.5672 11.3955 18.4947 11.343 18.4406L0.8 7.93462L3.735 5.01162L6.986 8.25162L6.483 8.75362C6.43076 8.80769 6.40156 8.87993 6.40156 8.95512C6.40156 9.0303 6.43076 9.10254 6.483 9.15662L11.99 14.6446C12.1 14.7536 12.286 14.7536 12.395 14.6446L12.932 14.1096L16.249 17.4146L13.249 20.4046C13.1965 20.4586 13.1672 20.5309 13.1672 20.6061C13.1672 20.6814 13.1965 20.7537 13.249 20.8076C13.359 20.9176 13.545 20.9176 13.654 20.8076L17.946 16.5316C17.9985 16.4775 18.0279 16.405 18.0279 16.3296C18.0279 16.2542 17.9985 16.1817 17.946 16.1276L14.191 12.4296L14.19 12.4286ZM4.15 4.59762L4.894 3.85562L8.146 7.09562L7.401 7.83762L4.161 4.59762H4.15ZM16.653 17.0126L13.336 13.7066L13.993 13.0526L17.333 16.3466L16.653 17.0236V17.0126Z" stroke="black" stroke-width="2" mask="url(#path-1-inside-1_7035_195)"/>
<path d="M13.445 21.0046C13.3414 21.0023 13.2429 20.9592 13.171 20.8846C13.0964 20.8131 13.0533 20.7149 13.051 20.6116C13.051 20.5136 13.095 20.4046 13.171 20.3276L16.106 17.4036L12.931 14.2406L12.471 14.6986C12.3965 14.7721 12.2961 14.8133 12.1915 14.8133C12.0869 14.8133 11.9865 14.7721 11.912 14.6986L6.405 9.21162C6.33041 9.14011 6.28726 9.04192 6.285 8.93861C6.285 8.84061 6.328 8.73162 6.405 8.65462L6.832 8.22962L3.734 5.14262L0.953 7.93462L11.431 18.3746C11.507 18.4516 11.551 18.5496 11.551 18.6586C11.551 18.7686 11.507 18.8656 11.431 18.9316C11.3566 19.0053 11.2562 19.0467 11.1515 19.0467C11.0468 19.0467 10.9464 19.0053 10.872 18.9316L0.12 8.20761C0.0454145 8.1361 0.00225576 8.03792 0 7.93462C0 7.83662 0.044 7.72762 0.12 7.65162L4.61 3.16762C4.6817 3.0933 4.77977 3.0502 4.883 3.04762C4.993 3.04762 5.091 3.09162 5.157 3.16762L8.814 6.81162C8.891 6.88762 8.934 6.98562 8.934 7.09462C8.934 7.20462 8.891 7.30262 8.814 7.36762L7.226 8.94962L12.176 13.8796L13.697 12.3646C13.7713 12.2909 13.8718 12.2496 13.9765 12.2496C14.0812 12.2496 14.1816 12.2909 14.256 12.3646L18.011 16.0626C18.0488 16.0995 18.0789 16.1436 18.0994 16.1923C18.1199 16.241 18.1305 16.2933 18.1305 16.3461C18.1305 16.399 18.1199 16.4513 18.0994 16.4999C18.0789 16.5486 18.0488 16.5927 18.011 16.6296L13.719 20.9056C13.6471 20.9802 13.5486 21.0233 13.445 21.0256V21.0046ZM12.92 13.9896C12.92 13.9896 12.975 13.9896 12.996 14.0226L16.314 17.3276C16.314 17.3276 16.347 17.3716 16.347 17.4036C16.347 17.4366 16.336 17.4586 16.314 17.4806L13.314 20.4696C13.314 20.4696 13.259 20.5456 13.259 20.5996C13.259 20.6546 13.281 20.6876 13.314 20.7316C13.3483 20.7632 13.3933 20.7808 13.44 20.7808C13.4867 20.7808 13.5317 20.7632 13.566 20.7316L17.858 16.4546C17.858 16.4546 17.912 16.3786 17.912 16.3246C17.9106 16.2758 17.8914 16.2292 17.858 16.1936L14.102 12.4946C14.0677 12.463 14.0227 12.4454 13.976 12.4454C13.9293 12.4454 13.8843 12.463 13.85 12.4946L12.252 14.0876C12.252 14.0876 12.142 14.1316 12.098 14.0876L6.996 9.00362C6.996 9.00362 6.953 8.89461 6.996 8.85161L8.661 7.19362C8.661 7.19362 8.715 7.11662 8.715 7.06262C8.715 7.00762 8.693 6.97462 8.661 6.93162L5.004 3.28762C5.004 3.28762 4.927 3.23362 4.872 3.23362C4.872 3.23362 4.785 3.25462 4.741 3.28762L0.263 7.80362C0.263 7.80362 0.208 7.88062 0.208 7.93462C0.208 7.98962 0.23 8.02262 0.263 8.06562L11.015 18.7786C11.0493 18.81 11.0941 18.8273 11.1405 18.8273C11.1869 18.8273 11.2317 18.81 11.266 18.7786C11.2835 18.7618 11.2973 18.7416 11.3068 18.7192C11.3162 18.6969 11.3211 18.6729 11.321 18.6486C11.3213 18.624 11.3166 18.5996 11.3072 18.5769C11.2977 18.5542 11.2837 18.5337 11.266 18.5166L0.723 8.01161C0.723 8.01161 0.679 7.90162 0.723 7.85862L3.657 4.93462C3.657 4.93462 3.767 4.89162 3.81 4.93462L7.062 8.17461C7.062 8.17461 7.095 8.21862 7.095 8.25162C7.09532 8.26592 7.09253 8.28011 7.08683 8.29323C7.08114 8.30635 7.07266 8.31808 7.062 8.32762L6.558 8.82962C6.558 8.82962 6.504 8.90562 6.504 8.95962C6.504 9.01462 6.526 9.04762 6.558 9.09162L12.066 14.5786C12.1003 14.6102 12.1453 14.6278 12.192 14.6278C12.2387 14.6278 12.2837 14.6102 12.318 14.5786L12.854 14.0446C12.854 14.0446 12.898 14.0116 12.931 14.0116L12.92 13.9896ZM16.653 17.1096C16.653 17.1096 16.599 17.0986 16.577 17.0766L13.259 13.7716C13.259 13.7716 13.215 13.6616 13.259 13.6186L13.916 12.9646C13.916 12.9646 14.026 12.9206 14.069 12.9646L17.409 16.2586C17.409 16.2586 17.442 16.3026 17.442 16.3346C17.442 16.3676 17.431 16.3896 17.409 16.4116L16.729 17.0876C16.729 17.0876 16.686 17.1206 16.653 17.1206V17.1096ZM13.478 13.6946L16.653 16.8586L17.179 16.3346L13.993 13.1936L13.489 13.6946H13.478ZM7.391 7.94562C7.391 7.94562 7.336 7.94562 7.314 7.91362L4.062 4.67362C4.062 4.67362 4.018 4.56362 4.062 4.52062L4.807 3.77862C4.807 3.77862 4.917 3.73462 4.96 3.77862L8.212 7.00862C8.212 7.00862 8.255 7.11662 8.212 7.16062L7.467 7.90262C7.467 7.90262 7.423 7.93462 7.391 7.93462V7.94562ZM4.292 4.59662L7.391 7.68362L7.981 7.09462L4.884 4.00862L4.293 4.59862L4.292 4.59662Z" stroke="black" stroke-width="2" mask="url(#path-1-inside-1_7035_195)"/>
<path d="M17.277 9.10262C17.2877 9.17646 17.3271 9.24311 17.3866 9.28805C17.4462 9.333 17.5211 9.35261 17.595 9.34262C17.6334 9.33834 17.6705 9.32635 17.7041 9.30739C17.7378 9.28842 17.7673 9.26286 17.7908 9.23223C17.8143 9.20161 17.8314 9.16655 17.8411 9.12916C17.8507 9.09176 17.8528 9.0528 17.847 9.01462C17.6124 7.59422 16.9339 6.28462 15.909 5.27362C14.8774 4.23823 13.543 3.55807 12.099 3.33162C12.0609 3.32571 12.022 3.32754 11.9846 3.33701C11.9472 3.34647 11.9121 3.36338 11.8814 3.38671C11.8507 3.41005 11.825 3.43934 11.8058 3.47282C11.7867 3.50631 11.7745 3.54331 11.77 3.58162C11.76 3.65544 11.7797 3.73021 11.8246 3.78961C11.8696 3.849 11.9362 3.88819 12.01 3.89862C13.3318 4.10175 14.5531 4.7252 15.493 5.67662C16.43 6.60347 17.0504 7.80243 17.266 9.10262H17.277Z" stroke="black" stroke-width="2" mask="url(#path-1-inside-1_7035_195)"/>
<path d="M17.562 9.45162C17.4681 9.45119 17.3775 9.41669 17.307 9.35453C17.2366 9.29237 17.1911 9.20677 17.179 9.11362C16.9626 7.83968 16.354 6.66505 15.438 5.75362C14.5096 4.82305 13.3095 4.21162 12.011 4.00762C11.9091 3.99269 11.8169 3.93903 11.7535 3.85782C11.6902 3.7766 11.6606 3.67408 11.671 3.57162C11.6762 3.51789 11.6926 3.46584 11.7191 3.41883C11.7456 3.37181 11.7817 3.33086 11.825 3.29862C11.9097 3.23595 12.0155 3.2087 12.12 3.22262C13.5837 3.4513 14.937 4.13863 15.985 5.18562C17.0212 6.21527 17.7102 7.54264 17.956 8.98262C17.978 9.09162 17.956 9.18962 17.88 9.27662C17.8475 9.31975 17.8063 9.35563 17.7591 9.38197C17.7119 9.40831 17.6598 9.42454 17.606 9.42962H17.562V9.45162ZM17.387 9.08062C17.397 9.17862 17.485 9.24361 17.584 9.23361C17.6088 9.23183 17.6328 9.22385 17.6538 9.2104C17.6748 9.19695 17.692 9.17846 17.704 9.15662C17.737 9.11362 17.748 9.06962 17.737 9.02662C17.5071 7.62705 16.8403 6.33611 15.832 5.33862C14.8145 4.31988 13.4995 3.65099 12.077 3.42862C12.033 3.42862 11.989 3.42862 11.945 3.46262C11.9064 3.49246 11.8795 3.53494 11.869 3.58262C11.8659 3.60557 11.8675 3.6289 11.8735 3.65125C11.8796 3.6736 11.8901 3.69452 11.9043 3.71277C11.9186 3.73103 11.9363 3.74626 11.9565 3.75756C11.9767 3.76887 11.999 3.77603 12.022 3.77862C13.3655 3.99306 14.607 4.62655 15.569 5.58862C16.5192 6.53202 17.1509 7.74868 17.376 9.06861L17.387 9.08062Z" stroke="black" stroke-width="2" mask="url(#path-1-inside-1_7035_195)"/>
<path d="M12.372 5.90562C12.23 5.82962 12.055 5.89562 11.978 6.03662C11.9477 6.10341 11.9444 6.17932 11.9688 6.24848C11.9933 6.31763 12.0435 6.37465 12.109 6.40762C13.2232 6.998 14.1377 7.90514 14.737 9.01462C14.814 9.15662 14.978 9.21162 15.12 9.14562C15.1546 9.1288 15.1856 9.10525 15.211 9.07635C15.2365 9.04745 15.2559 9.01378 15.2682 8.97729C15.2805 8.9408 15.2854 8.90223 15.2826 8.86382C15.2798 8.82542 15.2694 8.78796 15.252 8.75362C14.9342 8.15136 14.5239 7.60269 14.036 7.12762C13.5409 6.63701 12.9766 6.22159 12.361 5.89462L12.372 5.90562Z" stroke="black" stroke-width="2" mask="url(#path-1-inside-1_7035_195)"/>
<path d="M15.01 9.27662C14.9386 9.27603 14.8686 9.25658 14.8071 9.22022C14.7457 9.18387 14.6949 9.13191 14.66 9.06962C14.3703 8.53333 14.0056 8.04105 13.577 7.60762C13.1363 7.16579 12.6304 6.79414 12.077 6.50562C12.0097 6.46946 11.9543 6.41455 11.9175 6.34753C11.8808 6.28052 11.8642 6.20428 11.87 6.12806C11.8757 6.05185 11.9034 5.97893 11.9497 5.91814C11.996 5.85736 12.059 5.81132 12.131 5.78562C12.2325 5.75463 12.3419 5.76247 12.438 5.80762C13.6793 6.45725 14.6972 7.46432 15.36 8.69862C15.415 8.78562 15.415 8.89461 15.382 9.00461C15.3446 9.10752 15.2706 9.193 15.174 9.24462C15.1225 9.26899 15.0669 9.28357 15.01 9.28761V9.27662ZM12.252 5.97162H12.197C12.153 5.98162 12.109 6.02562 12.087 6.06962C12.044 6.15662 12.087 6.25462 12.175 6.30962C13.3101 6.91003 14.243 7.83179 14.857 8.95962C14.879 9.00157 14.9166 9.03318 14.9617 9.0476C15.0068 9.06201 15.0558 9.05807 15.098 9.03662C15.1416 9.01161 15.1763 8.97346 15.197 8.92762C15.2078 8.88496 15.2078 8.84027 15.197 8.79762C14.8805 8.2071 14.4785 7.66659 14.004 7.19362C13.5204 6.70951 12.9665 6.30123 12.361 5.98262C12.361 5.98262 12.306 5.96062 12.285 5.96062L12.252 5.97162Z" stroke="black" stroke-width="2" mask="url(#path-1-inside-1_7035_195)"/>
<path d="M10.402 0.123615C10.237 0.123615 10.117 0.276615 10.128 0.440615C10.1351 0.515423 10.171 0.584545 10.2281 0.633418C10.2852 0.682292 10.359 0.7071 10.434 0.702615C11.7477 0.631296 13.0617 0.836149 14.2914 1.30396C15.521 1.77177 16.6389 2.49214 17.573 3.41862C18.5163 4.35575 19.2477 5.48422 19.718 6.72797C20.1882 7.97171 20.3863 9.30182 20.299 10.6286C20.299 10.7826 20.398 10.9236 20.551 10.9346C20.715 10.9456 20.858 10.8256 20.869 10.6736C20.9639 9.26448 20.755 7.85141 20.2564 6.53002C19.7578 5.20864 18.9811 4.00979 17.979 3.01462C16.9894 2.02842 15.8033 1.26146 14.4979 0.763556C13.1926 0.265658 11.797 0.0479628 10.402 0.124615V0.123615Z" stroke="black" stroke-width="2" mask="url(#path-1-inside-1_7035_195)"/>
<path d="M20.584 11.0446H20.551C20.45 11.035 20.3568 10.9861 20.2913 10.9085C20.2259 10.8309 20.1935 10.7308 20.201 10.6296C20.2856 9.31711 20.089 8.00167 19.6244 6.77123C19.1598 5.54079 18.4379 4.4237 17.507 3.49462C16.584 2.57976 15.4802 1.86762 14.2663 1.40373C13.0523 0.939841 11.7549 0.734424 10.457 0.800615C10.354 0.808051 10.2522 0.774325 10.1741 0.706836C10.0959 0.639347 10.0477 0.543606 10.04 0.440615C10.04 0.330615 10.062 0.222615 10.139 0.145615C10.1726 0.105749 10.2144 0.0735256 10.2614 0.0511053C10.3085 0.0286849 10.3599 0.0165848 10.412 0.0156154C11.8233 -0.0631161 13.2353 0.156501 14.556 0.660147C15.8768 1.16379 17.0765 1.94016 18.077 2.93862C19.0878 3.94686 19.8715 5.15945 20.3756 6.49518C20.8797 7.83091 21.0926 9.25893 21 10.6836C21 10.7936 20.945 10.8806 20.858 10.9566C20.7853 11.0205 20.6917 11.0553 20.595 11.0546L20.584 11.0446ZM10.938 0.570615C13.445 0.570615 15.865 1.56262 17.65 3.34062C18.6031 4.29061 19.3423 5.43324 19.8181 6.69202C20.2939 7.95079 20.4954 9.29669 20.409 10.6396C20.409 10.7376 20.475 10.8246 20.573 10.8356C20.617 10.8356 20.672 10.8356 20.704 10.7926C20.7363 10.7592 20.7591 10.7178 20.77 10.6726C20.8617 9.27977 20.6541 7.88342 20.1612 6.57751C19.6682 5.27159 18.9013 4.08638 17.912 3.10162C16.9308 2.12422 15.7554 1.36372 14.4617 0.869331C13.168 0.374944 11.7849 0.157686 10.402 0.231615C10.3781 0.232305 10.3546 0.238643 10.3336 0.250112C10.3126 0.261582 10.2945 0.277859 10.281 0.297615C10.248 0.330615 10.237 0.384615 10.237 0.427615C10.237 0.527615 10.336 0.592615 10.423 0.592615C10.598 0.592615 10.763 0.581615 10.938 0.581615V0.570615Z" stroke="black" stroke-width="2" mask="url(#path-1-inside-1_7035_195)"/>
</svg>
