<svg width="64" height="64" viewBox="0 0 64 64" fill="none" xmlns="http://www.w3.org/2000/svg">
<path d="M34.918 42.9234L40.0049 42.9234L40.0049 37.8365C40.0049 37.4223 40.3407 37.0865 40.7549 37.0865C41.1691 37.0865 41.5049 37.4223 41.5049 37.8365L41.5049 43.6734C41.5048 44.0876 41.1691 44.4234 40.7549 44.4234L34.918 44.4234C34.5039 44.4233 34.168 44.0875 34.168 43.6734C34.168 43.2593 34.5039 42.9235 34.918 42.9234Z" fill="#CB9E62"/>
<path d="M29.0815 19.5767C29.4958 19.5767 29.8315 19.9125 29.8315 20.3267C29.8315 20.7409 29.4958 21.0767 29.0815 21.0767L23.9946 21.0767L23.9946 26.1636C23.9945 26.5778 23.6588 26.9136 23.2446 26.9136C22.8306 26.9135 22.4947 26.5777 22.4946 26.1636L22.4946 20.3267C22.4946 19.9126 22.8305 19.5768 23.2446 19.5767L29.0815 19.5767Z" fill="#CB9E62"/>
<path d="M42.5918 48.7603C44.3867 48.7603 45.8417 47.3052 45.8418 45.5103L45.8418 18.4898C45.8418 16.6949 44.3867 15.2398 42.5918 15.2398L21.4082 15.2398C19.6133 15.2398 18.1582 16.6949 18.1582 18.4898L18.1582 45.5103C18.1583 47.3052 19.6133 48.7603 21.4082 48.7603L42.5918 48.7603ZM21.4082 50.2603C18.7849 50.2603 16.6583 48.1336 16.6582 45.5103L16.6582 18.4898C16.6582 15.8665 18.7849 13.7398 21.4082 13.7398L42.5918 13.7398C45.2151 13.7398 47.3418 15.8665 47.3418 18.4898L47.3418 45.5103C47.3417 48.1336 45.2151 50.2603 42.5918 50.2603L21.4082 50.2603Z" fill="#CB9E62"/>
</svg>
