<svg width="64" height="64" viewBox="0 0 64 64" fill="none" xmlns="http://www.w3.org/2000/svg">
<path d="M29.3574 18.2858C29.3574 17.2207 28.4938 16.3571 27.4287 16.3571H14.8574C13.7923 16.3571 12.9287 17.2207 12.9287 18.2858V45.7145C12.9289 46.7795 13.7924 47.6432 14.8574 47.6432H27.4287C28.4937 47.6432 29.3573 46.7795 29.3574 45.7145V18.2858ZM30.8574 45.7145C30.8573 47.608 29.3222 49.1432 27.4287 49.1432H14.8574C12.964 49.1432 11.4289 47.608 11.4287 45.7145V18.2858C11.4287 16.3923 12.9639 14.8571 14.8574 14.8571H27.4287C29.3223 14.8571 30.8574 16.3923 30.8574 18.2858V45.7145Z" fill="#CB9E62"/>
<path d="M51.0718 38.8572C51.0718 37.7921 50.2082 36.9285 49.1431 36.9285H36.5718C35.5067 36.9285 34.6431 37.7921 34.6431 38.8572V45.7147C34.6433 46.7796 35.5068 47.6424 36.5718 47.6424H49.1431C50.2081 47.6424 51.0716 46.7796 51.0718 45.7147V38.8572ZM52.5718 45.7147C52.5716 47.608 51.0365 49.1424 49.1431 49.1424H36.5718C34.6784 49.1424 33.1433 47.608 33.1431 45.7147V38.8572C33.1431 36.9637 34.6782 35.4285 36.5718 35.4285H49.1431C51.0366 35.4285 52.5718 36.9637 52.5718 38.8572V45.7147Z" fill="#CB9E62"/>
<path d="M51.0718 24.571C51.0716 20.0346 47.3934 16.3571 42.8569 16.3571C38.3206 16.3573 34.6433 20.0347 34.6431 24.571C34.6431 29.1075 38.3205 32.7856 42.8569 32.7858C47.3936 32.7858 51.0718 29.1076 51.0718 24.571ZM52.5718 24.571C52.5718 29.936 48.222 34.2858 42.8569 34.2858C37.4921 34.2856 33.1431 29.9359 33.1431 24.571C33.1433 19.2063 37.4922 14.8573 42.8569 14.8571C48.2218 14.8571 52.5716 19.2061 52.5718 24.571Z" fill="#CB9E62"/>
</svg>
