<svg width="64" height="64" viewBox="0 0 64 64" fill="none" xmlns="http://www.w3.org/2000/svg">
<path d="M52.104 32.0005C52.104 31.5585 51.9473 31.1059 51.6421 30.6118C51.3338 30.1129 50.9009 29.6133 50.3989 29.0786C49.9159 28.5641 49.3451 27.9934 48.8599 27.4302C48.3683 26.8597 47.9015 26.2291 47.6128 25.5317C47.3314 24.8509 47.2251 24.0851 47.1772 23.3462C47.1302 22.6198 47.1365 21.81 47.1167 21.1108C47.0738 19.5995 46.902 18.4708 46.2163 17.7847C45.5302 17.0986 44.4009 16.9262 42.8892 16.8833C42.19 16.8635 41.3802 16.8698 40.6538 16.8228C39.9148 16.7749 39.1501 16.6686 38.4692 16.3872L38.4673 16.3862C37.7727 16.0974 37.1433 15.6313 36.5737 15.1401C36.0115 14.6553 35.4401 14.0838 34.9253 13.6011C34.3901 13.0992 33.889 12.6663 33.3892 12.3579C32.8944 12.0527 32.4424 11.8961 32.0005 11.896C31.5585 11.896 31.1059 12.0527 30.6118 12.3579C30.1129 12.6662 29.6133 13.0991 29.0786 13.6011C28.5641 14.0841 27.9934 14.6549 27.4302 15.1401C26.8597 15.6317 26.2291 16.0985 25.5317 16.3872C24.8513 16.6686 24.0859 16.7749 23.3472 16.8228C22.6208 16.8698 21.8111 16.8635 21.1118 16.8833C19.5997 16.9262 18.4707 17.0986 17.7847 17.7847C17.0986 18.4707 16.9262 19.5997 16.8833 21.1118C16.8634 21.8111 16.8699 22.6208 16.8228 23.3472C16.7748 24.0861 16.6679 24.8512 16.3862 25.5317C16.0974 26.2263 15.6313 26.8567 15.1401 27.4263C14.6553 27.9885 14.0838 28.5599 13.6011 29.0747C13.0992 29.61 12.6663 30.111 12.3579 30.6108C12.0526 31.1058 11.896 31.5584 11.896 32.0005C11.8961 32.4424 12.0527 32.8944 12.3579 33.3892C12.6663 33.889 13.0992 34.3901 13.6011 34.9253C14.0838 35.4401 14.6553 36.0115 15.1401 36.5737C15.6313 37.1433 16.0974 37.7727 16.3862 38.4673L16.3872 38.4692C16.6686 39.1501 16.7748 39.9149 16.8228 40.6538C16.8699 41.3802 16.8634 42.19 16.8833 42.8892C16.9262 44.4009 17.0986 45.5302 17.7847 46.2163C18.4708 46.902 19.6001 47.0738 21.1118 47.1167C21.8111 47.1366 22.6208 47.1301 23.3472 47.1772C24.0861 47.2252 24.8512 47.3321 25.5317 47.6138C26.2263 47.9025 26.8567 48.3687 27.4263 48.8599C27.9885 49.3447 28.5599 49.9162 29.0747 50.3989C29.61 50.9008 30.111 51.3337 30.6108 51.6421C31.1058 51.9474 31.5584 52.104 32.0005 52.104C32.4424 52.1039 32.8944 51.9473 33.3892 51.6421C33.889 51.3337 34.39 50.9008 34.9253 50.3989C35.4401 49.9162 36.0115 49.3447 36.5737 48.8599C37.1433 48.3687 37.7727 47.9026 38.4673 47.6138L38.4692 47.6128C39.1501 47.3314 39.9149 47.2252 40.6538 47.1772C41.3802 47.1301 42.19 47.1366 42.8892 47.1167C44.4009 47.0738 45.5302 46.9024 46.2163 46.2163C46.9024 45.5302 47.0738 44.4009 47.1167 42.8892C47.1365 42.19 47.1302 41.3802 47.1772 40.6538C47.2251 39.9149 47.3314 39.1501 47.6128 38.4692L47.6138 38.4673C47.9026 37.7727 48.3687 37.1433 48.8599 36.5737C49.3447 36.0115 49.9162 35.4401 50.3989 34.9253C50.9008 34.39 51.3337 33.889 51.6421 33.3892C51.9473 32.8944 52.1039 32.4424 52.104 32.0005ZM53.604 32.0005C53.6039 32.8114 53.3134 33.537 52.9185 34.1772C52.5265 34.8126 52.0057 35.4046 51.4927 35.9517C50.9603 36.5194 50.4548 37.0207 49.9956 37.5532C49.5433 38.0777 49.1971 38.5647 48.9985 39.0415C48.8109 39.4954 48.7186 40.0669 48.6743 40.7505C48.6292 41.4467 48.638 42.1472 48.6157 42.9312C48.5744 44.386 48.4355 46.1182 47.2769 47.2769C46.1182 48.4355 44.386 48.5744 42.9312 48.6157C42.1472 48.638 41.4467 48.6292 40.7505 48.6743C40.067 48.7187 39.4964 48.8119 39.0425 48.9995L39.0415 48.9985C38.5647 49.1971 38.0777 49.5434 37.5532 49.9956C37.0207 50.4548 36.5194 50.9603 35.9517 51.4927C35.4046 52.0057 34.8126 52.5265 34.1772 52.9185C33.537 53.3134 32.8114 53.6039 32.0005 53.604C31.1894 53.604 30.4631 53.3135 29.8228 52.9185C29.1874 52.5265 28.5954 52.0057 28.0483 51.4927C27.4806 50.9603 26.9793 50.4548 26.4468 49.9956C25.922 49.5431 25.4346 49.197 24.9575 48.9985C24.5043 48.8111 23.9338 48.7187 23.2505 48.6743C22.5542 48.6292 21.8531 48.638 21.0688 48.6157C19.6139 48.5744 17.8818 48.4355 16.7231 47.2769C15.5645 46.1182 15.4256 44.386 15.3843 42.9312C15.362 42.1472 15.3708 41.4467 15.3257 40.7505C15.2813 40.067 15.1881 39.4964 15.0005 39.0425C14.8019 38.5658 14.4565 38.0776 14.0044 37.5532C13.5452 37.0207 13.0397 36.5194 12.5073 35.9517C11.9943 35.4046 11.4735 34.8126 11.0815 34.1772C10.6866 33.537 10.3961 32.8114 10.396 32.0005C10.396 31.1894 10.6865 30.4631 11.0815 29.8228C11.4735 29.1874 11.9943 28.5954 12.5073 28.0483C13.0397 27.4806 13.5452 26.9793 14.0044 26.4468C14.4568 25.9221 14.802 25.4345 15.0005 24.9575C15.1881 24.5043 15.2813 23.934 15.3257 23.2505C15.3708 22.5543 15.362 21.8531 15.3843 21.0688C15.4256 19.6139 15.5645 17.8817 16.7231 16.7231C17.8818 15.5645 19.6139 15.4256 21.0688 15.3843C21.8531 15.362 22.5542 15.3708 23.2505 15.3257C23.934 15.2814 24.5042 15.188 24.9575 15.0005C25.437 14.802 25.9257 14.4567 26.4507 14.0044C26.9832 13.5456 27.4854 13.0394 28.0522 12.5073C28.5985 11.9945 29.1893 11.4735 29.8237 11.0815C30.4635 10.6863 31.1893 10.396 32.0005 10.396C32.8114 10.3961 33.537 10.6866 34.1772 11.0815C34.8126 11.4735 35.4046 11.9943 35.9517 12.5073C36.5194 13.0397 37.0207 13.5452 37.5532 14.0044C38.0776 14.4566 38.5648 14.8019 39.0415 15.0005C39.4954 15.1881 40.0669 15.2814 40.7505 15.3257C41.4467 15.3708 42.1471 15.362 42.9312 15.3843C44.386 15.4256 46.1182 15.5645 47.2769 16.7231C48.4355 17.8818 48.5744 19.614 48.6157 21.0688C48.638 21.8529 48.6292 22.5533 48.6743 23.2495C48.7186 23.933 48.8119 24.5036 48.9995 24.9575C49.1981 25.4371 49.5441 25.9255 49.9966 26.4507C50.4554 26.9832 50.9606 27.4854 51.4927 28.0522C52.0055 28.5985 52.5265 29.1893 52.9185 29.8237C53.3137 30.4635 53.604 31.1893 53.604 32.0005Z" fill="#CB9E62"/>
<path d="M39.4909 26.6573C39.7838 26.3646 40.2587 26.3644 40.5515 26.6573C40.8441 26.9501 40.8441 27.425 40.5515 27.7178L29.322 38.9473C29.0292 39.2399 28.5543 39.2399 28.2614 38.9473L23.4489 34.1348C23.1561 33.842 23.1562 33.3672 23.4489 33.0742C23.7418 32.7814 24.2166 32.7814 24.5095 33.0742L28.7917 37.3565L39.4909 26.6573Z" fill="#CB9E62"/>
</svg>
