<svg width="64" height="64" viewBox="0 0 64 64" fill="none" xmlns="http://www.w3.org/2000/svg">
<path d="M26.6715 26.1979V14.3337C26.6715 13.9196 27.0074 13.5839 27.4215 13.5837C27.8357 13.5837 28.1715 13.9195 28.1715 14.3337V26.1979C28.1714 26.6113 28.0598 27.0168 27.8482 27.3718L15.7183 47.7233C15.5731 47.9671 15.5695 48.2717 15.7086 48.5192C15.8475 48.7662 16.1062 48.9167 16.3834 48.9167H47.6168C47.8938 48.9167 48.1517 48.7661 48.2906 48.5192C48.4298 48.2718 48.4261 47.9671 48.2808 47.7233L36.151 27.3718C35.9395 27.0169 35.8277 26.6113 35.8277 26.1979V14.3337C35.8277 13.9195 36.1636 13.5837 36.5777 13.5837C36.9919 13.5837 37.3277 13.9195 37.3277 14.3337V26.1979C37.3277 26.3414 37.367 26.4817 37.44 26.6042L49.5699 46.9557C49.9902 47.6611 50.0008 48.5389 49.5982 49.2546C49.1954 49.9708 48.4393 50.4167 47.6168 50.4167H16.3834C15.6122 50.4167 14.8991 50.0247 14.481 49.3854L14.401 49.2546C13.9986 48.5389 14.01 47.6611 14.4303 46.9557L26.5601 26.6042L26.608 26.5095C26.6497 26.4116 26.6714 26.3057 26.6715 26.1979Z" fill="#CB9E62"/>
<path d="M39.6299 13.592C40.0441 13.592 40.3799 13.9278 40.3799 14.342C40.3799 14.7562 40.0441 15.092 39.6299 15.092H24.3701C23.9559 15.092 23.6201 14.7562 23.6201 14.342C23.6201 13.9278 23.9559 13.592 24.3701 13.592H39.6299Z" fill="#CB9E62"/>
<path d="M19.0852 39.2611C21.6222 37.3998 25.8073 36.4921 32.3371 39.7787C35.6575 41.45 38.2166 41.9221 40.1614 41.7904C42.0959 41.6594 43.4784 40.9273 44.4543 40.0883C44.7684 39.8183 45.2419 39.8543 45.5119 40.1684C45.7819 40.4825 45.7459 40.956 45.4319 41.226C44.2367 42.2534 42.5531 43.1314 40.2619 43.2865C37.9808 43.4409 35.1534 42.8753 31.6633 41.1186C25.5039 38.0183 21.9455 39.022 19.9719 40.4701C19.6379 40.7151 19.1691 40.6429 18.9241 40.309C18.6792 39.9751 18.7513 39.5061 19.0852 39.2611Z" fill="#CB9E62"/>
</svg>
