<svg width="22" height="22" viewBox="0 0 22 22" fill="none" xmlns="http://www.w3.org/2000/svg">
<path fill-rule="evenodd" clip-rule="evenodd" d="M0.25 11C0.25 5.08579 5.08579 0.25 11 0.25C16.9142 0.25 21.75 5.08579 21.75 11C21.75 16.9142 16.9142 21.75 11 21.75C9.17844 21.75 7.35754 21.2746 5.80033 20.4085L2.88903 21.2403C1.58692 21.6123 0.373811 20.4279 0.714576 19.1173L1.50174 16.0897C0.73173 14.5613 0.25 12.8344 0.25 11ZM11 1.75C5.91421 1.75 1.75 5.91421 1.75 11C1.75 12.6595 2.21092 14.2392 2.96176 15.6471C3.05036 15.8132 3.07324 16.0065 3.02587 16.1887L2.16631 19.4947C2.11763 19.6819 2.29093 19.8512 2.47695 19.798L5.69396 18.8789C5.89356 18.8218 6.10787 18.8501 6.28587 18.9569C7.66797 19.7861 9.33436 20.25 11 20.25C16.0858 20.25 20.25 16.0858 20.25 11C20.25 5.91421 16.0858 1.75 11 1.75Z" fill="#17191C"/>
<path fill-rule="evenodd" clip-rule="evenodd" d="M8.11793 7.25C8.01591 7.25 7.88138 7.28575 7.70626 7.45788L7.70058 7.46347L7.69478 7.46893C7.5312 7.62301 7.42522 7.784 7.36003 7.94945L7.35847 7.95341C7.28818 8.12886 7.25 8.32603 7.25 8.543C7.25 8.89352 7.33075 9.2845 7.5151 9.72201C7.7057 10.1698 7.97286 10.6336 8.3151 11.1089C8.66504 11.5886 9.05813 12.0489 9.49514 12.4898C9.93693 12.9264 10.3987 13.3196 10.885 13.6743C11.3577 14.0178 11.8267 14.2854 12.2874 14.4814C12.7304 14.6699 13.1217 14.75 13.4629 14.75C13.6834 14.75 13.878 14.7096 14.0537 14.6365L14.0577 14.6349C14.2176 14.5694 14.371 14.4639 14.5257 14.2938C14.6038 14.2076 14.6626 14.1172 14.7093 14.0184C14.7393 13.955 14.75 13.8978 14.75 13.8485C14.75 13.8403 14.7492 13.8333 14.7474 13.8248L14.7467 13.8217L13.2612 12.7686C13.1977 12.7258 13.1504 12.6992 13.1158 12.6827C13.0963 12.6948 13.0522 12.7265 12.9834 12.7952L12.9798 12.7987L12.6386 13.135C12.4562 13.316 12.2108 13.4285 11.9261 13.4285C11.8276 13.4285 11.696 13.4174 11.5505 13.3629L11.5343 13.3568L11.5184 13.35C11.4947 13.3399 11.4728 13.3298 11.4608 13.3243L11.4574 13.3228L11.4485 13.3188L11.4171 13.3062L11.3818 13.2876C11.1632 13.172 10.9235 13.0002 10.6669 12.7834L10.666 12.7826C10.4076 12.5635 10.1589 12.3291 9.90945 12.0847L9.9044 12.0797L9.89944 12.0747C9.65166 11.8225 9.4246 11.572 9.21416 11.3292L9.2087 11.3229C8.99713 11.0732 8.82023 10.8351 8.7036 10.6216L8.67155 10.5629L8.65489 10.513V10.513L8.65345 10.5096C8.64797 10.4967 8.63575 10.468 8.62362 10.4357L8.60858 10.3956L8.5982 10.3542C8.57684 10.2689 8.56222 10.1757 8.56222 10.0685C8.56222 9.81709 8.65042 9.5651 8.84772 9.3645L9.19177 9.0074L9.19691 9.00227C9.24862 8.95064 9.28315 8.90836 9.30496 8.87754C9.28912 8.84483 9.26368 8.80074 9.22216 8.74316L9.2191 8.73892L8.17018 7.26267L8.16907 7.26215L8.15878 7.25741C8.15372 7.25498 8.13926 7.25 8.11793 7.25ZM6.66055 6.38246C7.06127 5.99093 7.55564 5.75 8.11793 5.75C8.34717 5.75 8.58316 5.79834 8.80199 5.90222C9.0272 6.00699 9.23631 6.16939 9.39839 6.40152L10.4405 7.86811C10.5468 8.01591 10.6358 8.16832 10.7025 8.32953C10.7711 8.49113 10.8239 8.68508 10.8239 8.894C10.8239 9.14877 10.7496 9.38659 10.6261 9.59312C10.5276 9.76445 10.3996 9.92033 10.2623 10.0582L10.1821 10.1414C10.2283 10.202 10.284 10.2715 10.3505 10.35C10.5433 10.5725 10.7464 10.7962 10.9644 11.0183C11.1997 11.2487 11.4179 11.4535 11.6355 11.6381C11.7156 11.7056 11.7864 11.7617 11.8484 11.8078L11.9254 11.7319C12.0627 11.5951 12.2241 11.4594 12.4096 11.3589C12.611 11.2409 12.8407 11.168 13.0979 11.168C13.2933 11.168 13.4796 11.21 13.6564 11.2822C13.8185 11.3484 13.9691 11.4361 14.1096 11.5315L14.1158 11.5358L15.6106 12.5954C15.8225 12.7428 16.0015 12.9392 16.1142 13.1951L16.1194 13.2067L16.1241 13.2186C16.1966 13.3997 16.25 13.6074 16.25 13.8485C16.25 14.1232 16.1886 14.399 16.0653 14.6596C15.9589 14.8847 15.8194 15.1003 15.6362 15.3021C15.3498 15.6173 15.0169 15.8627 14.6279 16.0223C14.2633 16.1737 13.8727 16.25 13.4629 16.25C12.8848 16.25 12.2936 16.1142 11.7001 15.8616C11.1244 15.6167 10.5571 15.2904 10.0024 14.8871L10.0015 14.8865C9.45228 14.4859 8.93256 14.043 8.43784 13.5538L8.43268 13.5487C7.94285 13.0548 7.49899 12.5356 7.10181 11.9909L7.09926 11.9874C6.70328 11.4377 6.37613 10.8765 6.13434 10.3081L6.13341 10.3059C5.88544 9.71786 5.75 9.12819 5.75 8.543C5.75 8.14869 5.81974 7.76155 5.96524 7.39757C6.11549 7.01715 6.34979 6.67664 6.66055 6.38246Z" fill="#17191C"/>
</svg>
