<!-- Generated by IcoMoon.io -->
<svg version="1.1" xmlns="http://www.w3.org/2000/svg" width="1024" height="1024" viewBox="0 0 1024 1024">
<g id="icomoon-ignore">
</g>
<path fill="#000" d="M1.306 1023.626l73.516-273.912c-41.422-75.009-63.44-158.973-63.44-244.058 0-278.764 226.892-505.656 505.656-505.656s505.656 226.892 505.656 505.656c0 278.764-226.892 505.656-505.656 505.656-83.592 0-166.438-21.271-240.327-61.201l-275.032 73.889-0.373-0.373zM290.519 847.487l17.166 10.449c63.44 38.064 135.837 57.843 209.353 57.843 226.146 0 410.122-183.977 410.122-410.122s-183.977-410.122-410.122-410.122c-226.146 0-410.122 183.977-410.122 410.122 0 74.636 20.898 148.152 60.082 212.711l10.449 17.54-41.050 153.003 153.749-41.050 0.373-0.373z"></path>
<path fill="#000" d="M705.119 575.817c-20.898-12.315-47.766-26.496-72.397-16.419-18.659 7.837-30.973 37.317-42.915 52.245-6.344 7.837-13.807 8.956-23.137 5.224-70.531-27.989-124.642-75.382-163.452-140.315-6.717-10.076-5.598-17.912 2.612-27.242 11.942-13.807 26.496-29.481 29.854-48.14s-5.598-40.674-13.435-57.095c-9.703-21.271-20.898-51.499-42.169-63.44-19.405-11.195-45.154-4.851-62.694 9.33-30.228 24.63-44.782 63.067-44.035 100.756 0 10.822 1.493 21.644 4.105 32.093 5.97 25.003 17.54 48.513 30.601 70.904 9.703 16.793 20.524 33.213 32.093 48.887 37.691 51.126 84.711 95.907 139.195 129.119 27.242 16.793 56.35 31.347 86.578 41.422 33.959 11.195 64.187 22.764 101.132 16.047 38.438-7.463 76.501-30.973 91.429-68.292 4.479-10.822 6.717-23.137 4.105-34.705-5.224-23.884-37.691-38.064-57.096-49.633l-0.373-0.746z"></path>
</svg>
