<!-- Generated by IcoMoon.io -->
<svg version="1.1" xmlns="http://www.w3.org/2000/svg" width="1024" height="1024" viewBox="0 0 1024 1024">
<g id="icomoon-ignore">
</g>
<path d="M512.016 0c282.771 0.004 511.984 229.246 511.984 512.016-0.003 282.771-229.215 511.981-511.984 511.984-282.77 0-512.013-229.215-512.016-511.984 0-282.772 229.244-512.016 512.016-512.016zM61.254 542.139c13.999 212.596 175.037 384.991 382.382 416.474-90.805-120.438-144.294-265.279-153.268-416.474h-229.114zM733.667 542.139c-8.975 151.199-62.493 296.031-153.302 416.474 207.354-31.472 368.381-203.873 382.382-416.474h-229.080zM350.679 542.139c9.598 148.947 66.105 291.033 161.337 405.884 95.232-114.852 151.708-256.941 161.306-405.884h-322.643zM580.365 65.389c90.819 120.447 144.33 265.297 153.302 416.504h229.080c-13.994-212.606-175.021-385.032-382.382-416.504zM512.016 75.979c-95.242 114.857-151.742 256.962-161.337 405.914h322.643c-9.595-148.949-66.063-291.058-161.306-405.914zM443.602 65.389c-207.334 31.494-368.355 203.917-382.347 416.504h229.114c8.971-151.196 62.428-296.062 153.234-416.504z"></path>
</svg>
