<svg width="22" height="18" viewBox="0 0 22 18" fill="none" xmlns="http://www.w3.org/2000/svg">
<path fill-rule="evenodd" clip-rule="evenodd" d="M2.90533 2.90533C2.18991 3.62075 1.75 4.67044 1.75 6V12C1.75 13.3296 2.18991 14.3793 2.90533 15.0947C3.62075 15.8101 4.67044 16.25 6 16.25H16C17.3296 16.25 18.3793 15.8101 19.0947 15.0947C19.8101 14.3793 20.25 13.3296 20.25 12V6C20.25 4.67044 19.8101 3.62075 19.0947 2.90533C18.3793 2.18991 17.3296 1.75 16 1.75H6C4.67044 1.75 3.62075 2.18991 2.90533 2.90533ZM1.84467 1.84467C2.87925 0.810085 4.32956 0.25 6 0.25H16C17.6704 0.25 19.1207 0.810085 20.1553 1.84467C21.1899 2.87925 21.75 4.32956 21.75 6V12C21.75 13.6704 21.1899 15.1207 20.1553 16.1553C19.1207 17.1899 17.6704 17.75 16 17.75H6C4.32956 17.75 2.87925 17.1899 1.84467 16.1553C0.810085 15.1207 0.25 13.6704 0.25 12V6C0.25 4.32956 0.810085 2.87925 1.84467 1.84467Z" fill="#17191C"/>
<path fill-rule="evenodd" clip-rule="evenodd" d="M9.42972 7.09137C9.38949 7.185 9.35 7.34726 9.35 7.6V10.6C9.35 10.9848 9.48404 11.0788 9.49979 11.0879C9.5094 11.0934 9.65671 11.1713 10.0141 10.9569L12.4974 9.46691C12.7985 9.26196 12.825 9.09752 12.825 9.05C12.825 9.00249 12.7985 8.83804 12.4974 8.63309L10.0141 7.14312C9.82967 7.03244 9.69182 6.99098 9.60518 6.98031C9.56336 6.97516 9.5366 6.97748 9.52213 6.98005C9.50846 6.98248 9.50238 6.98565 9.49979 6.98714C9.4972 6.98863 9.49006 6.9931 9.47901 7.00619C9.46743 7.01992 9.4492 7.04604 9.42972 7.09137ZM8.75021 5.68786C9.41437 5.30469 10.1765 5.49123 10.7859 5.85688L13.2859 7.35688C13.2961 7.363 13.3061 7.36936 13.316 7.37596C13.9023 7.76681 14.325 8.34821 14.325 9.05C14.325 9.75179 13.9023 10.3332 13.316 10.724C13.3061 10.7306 13.2961 10.737 13.2859 10.7431L10.7859 12.2431C10.1433 12.6287 9.3906 12.7566 8.75021 12.3871C8.11596 12.0212 7.85 11.3152 7.85 10.6V7.6C7.85 6.83178 8.08735 6.07028 8.75021 5.68786Z" fill="#17191C"/>
</svg>
